<svg width="128" height="128" viewBox="0 0 128 128" fill="none" xmlns="http://www.w3.org/2000/svg">
<rect width="128" height="128" rx="10" fill="none"/>
<path class="h" d="M31 11H53.5256V79H31V11ZM74.4744 52.8081H58.256V36.9942H74.4744V11H97V79H74.4744V52.8081Z" fill="black"/>
<path class="dev" d="M13 117L20.3545 85H32.1617C35.7305 85 38.5322 85.2171 40.5668 85.6512C42.6013 86.0543 44.0356 86.7674 44.8694 87.7907C45.7032 88.814 46.1202 90.2713 46.1202 92.1628C46.1202 93.2791 45.9867 94.5969 45.7199 96.1163C45.4864 97.6047 45.1529 99.3256 44.7193 101.279C44.1189 103.884 43.5519 106.116 43.0183 107.977C42.518 109.806 41.8842 111.31 41.1171 112.488C40.3833 113.667 39.4161 114.597 38.2153 115.279C37.048 115.93 35.5304 116.38 33.6626 116.628C31.7948 116.876 29.4267 117 26.5582 117H13ZM23.1562 110.907H26.4082C27.8424 110.907 29.0097 110.876 29.9103 110.814C30.8442 110.721 31.5946 110.519 32.1617 110.209C32.762 109.868 33.2623 109.357 33.6626 108.674C34.0628 107.961 34.4297 107 34.7632 105.791C35.1301 104.55 35.5304 102.953 35.964 101C36.3642 99.3256 36.6644 97.9147 36.8645 96.7674C37.098 95.6202 37.2147 94.6744 37.2147 93.9302C37.2147 93.2481 37.098 92.7209 36.8645 92.3488C36.6644 91.9457 36.3142 91.6667 35.8139 91.5116C35.3136 91.3256 34.6632 91.2171 33.8627 91.186C33.0622 91.124 32.0783 91.093 30.9109 91.093H27.709L23.1562 110.907ZM47.5425 117L54.897 85H79.5119L78.1111 91.093H62.2014L60.6505 97.8837H74.1087L72.7578 103.837H59.2996L57.6486 110.907H73.5583L72.1575 117H47.5425ZM85.5821 117L82.18 85H90.9354L92.9866 108.116H93.3868L106.045 85H115L96.939 117H85.5821Z" fill="#23A9B8"/>
<style>
.h{fill:#000}@media (prefers-color-scheme:dark){.h{fill:#fff}}
</style>
</svg>